<?xml version="1.0" encoding="UTF-8" standalone="no"?>
<svg
   width="620mm"
   height="130mm"
   viewBox="0 0 620 130"
   version="1.1"
   id="svg8"
   inkscape:version="1.1 (c68e22c387, 2021-05-23)"
   sodipodi:docname="Logotype.svg"
   inkscape:export-filename="\\wsl$\openSUSE-Leap-15.3\ws\Projects\InitKit\doc\Logotype.png"
   inkscape:export-xdpi="32.774193"
   inkscape:export-ydpi="32.774193"
   xmlns:inkscape="http://www.inkscape.org/namespaces/inkscape"
   xmlns:sodipodi="http://sodipodi.sourceforge.net/DTD/sodipodi-0.dtd"
   xmlns="http://www.w3.org/2000/svg"
   xmlns:svg="http://www.w3.org/2000/svg"
   xmlns:rdf="http://www.w3.org/1999/02/22-rdf-syntax-ns#"
   xmlns:cc="http://creativecommons.org/ns#"
   xmlns:dc="http://purl.org/dc/elements/1.1/">
  <defs
     id="defs2" />
  <sodipodi:namedview
     id="base"
     pagecolor="#ffffff"
     bordercolor="#666666"
     borderopacity="1.0"
     inkscape:pageopacity="0.0"
     inkscape:pageshadow="2"
     inkscape:zoom="0.34729209"
     inkscape:cx="997.71924"
     inkscape:cy="666.58587"
     inkscape:document-units="mm"
     inkscape:current-layer="layer1"
     showgrid="false"
     inkscape:window-width="1920"
     inkscape:window-height="1017"
     inkscape:window-x="892"
     inkscape:window-y="166"
     inkscape:window-maximized="1"
     inkscape:document-rotation="0"
     inkscape:pagecheckerboard="0"
     showguides="true"
     width="600mm" />
  <metadata
     id="metadata5">
    <rdf:RDF>
      <cc:Work
         rdf:about="">
        <dc:format>image/svg+xml</dc:format>
        <dc:type
           rdf:resource="http://purl.org/dc/dcmitype/StillImage" />
      </cc:Work>
    </rdf:RDF>
  </metadata>
  <g
     inkscape:label="Layer 1"
     inkscape:groupmode="layer"
     id="layer1"
     transform="translate(0,-147)">
    <path
       style="fill:#ffffff;fill-opacity:1;stroke-width:0.355885"
       d="m 197.74816,266.52884 c 8.49135,-1.99221 14.3253,-5.04866 19.87088,-10.41045 10.67107,-10.31741 12.5466,-25.20236 4.6896,-37.21865 -1.78105,-2.7239 -6.48947,-7.45816 -9.29726,-9.34829 -2.72323,-1.8332 -7.18205,-4.06944 -9.74698,-4.88839 -2.78429,-0.889 -2.86268,-0.98908 -2.61684,-3.34107 0.27057,-2.58877 -0.36797,-7.38972 -1.50452,-11.31169 -4.83593,-16.68783 -20.65884,-29.44784 -40.57281,-32.71899 -5.20394,-0.85484 -13.96205,-0.84414 -18.83146,0.0229 -7.80889,1.39056 -15.53817,4.44409 -21.8063,8.61474 -3.65898,2.43461 -8.89161,7.37679 -11.72546,11.07464 -1.96374,2.56245 -2.19117,2.74446 -3.32791,2.66353 -4.980919,-0.3547 -11.823292,-0.18169 -14.591127,0.36889 -12.220184,2.43091 -21.995138,9.48869 -27.051496,19.53188 l -1.375147,2.7314 -2.589642,-0.19406 c -3.018473,-0.22622 -9.42158,0.62149 -13.003663,1.72151 -7.569936,2.32465 -13.84979,6.34473 -18.696657,11.96874 -2.512705,2.91559 -5.65371,9.14048 -6.451226,12.78513 -0.799721,3.65471 -0.730466,9.2917 0.156933,12.77369 0.876732,3.44009 2.700686,7.36731 4.763766,10.25706 1.903611,2.66635 6.448907,7.04106 9.217762,8.87179 4.960597,3.27987 12.153892,5.90718 18.077726,6.60278 1.448677,0.1701 34.263303,0.28342 72.921411,0.25178 70.17658,-0.0573 70.29249,-0.0587 73.49042,-0.80894 z"
       id="path841"
       inkscape:connector-curvature="0"
       inkscape:export-filename="\\wsl$\openSUSE-Leap-15.3\ws\Projects\InitKit\doc\Logotype2.png"
       inkscape:export-xdpi="37.629631"
       inkscape:export-ydpi="37.629631" />
    <g
       aria-label="InitKit"
       id="text785"
       style="font-size:141.111px;line-height:1.25;fill:#ffffff;stroke-width:0.264583"
       transform="translate(10.000002,4.9999981)">
      <path
         d="m 253.19772,259.86902 h -20.67056 v -100.3211 h 20.67056 z"
         style="font-weight:bold;-inkscape-font-specification:'Roboto Bold';fill:#ffffff"
         id="path7228" />
      <path
         d="m 289.37119,185.31721 0.62012,8.61274 q 7.99261,-9.99077 21.42848,-9.99077 11.85111,0 17.63887,6.95908 5.78776,6.95909 5.92556,20.80836 v 48.1624 h -19.91264 v -47.68008 q 0,-6.33897 -2.75607,-9.16395 -2.75607,-2.89388 -9.16395,-2.89388 -8.40602,0 -12.60904,7.1658 v 52.57211 h -19.91263 v -74.55181 z"
         style="font-weight:bold;-inkscape-font-specification:'Roboto Bold';fill:#ffffff"
         id="path7230" />
      <path
         d="m 371.08879,259.86902 h -19.98154 v -74.55181 h 19.98154 z M 349.93592,166.0247 q 0,-4.47862 2.96278,-7.3725 3.03168,-2.89388 8.19932,-2.89388 5.09874,0 8.13042,2.89388 3.03168,2.89388 3.03168,7.3725 0,4.54752 -3.10058,7.4414 -3.03168,2.89387 -8.06152,2.89387 -5.02983,0 -8.13042,-2.89387 -3.03168,-2.89388 -3.03168,-7.4414 z"
         style="font-weight:bold;-inkscape-font-specification:'Roboto Bold';fill:#ffffff"
         id="path7232" />
      <path
         d="m 411.32747,166.98932 v 18.32789 h 12.74684 v 14.6072 h -12.74684 v 37.207 q 0,4.13411 1.58474,5.92556 1.58475,1.79144 6.06337,1.79144 3.30729,0 5.85665,-0.48231 v 15.08951 q -5.85665,1.79145 -12.05782,1.79145 -20.94616,0 -21.35957,-21.15287 v -40.16978 h -10.8865 v -14.6072 h 10.8865 v -18.32789 z"
         style="font-weight:bold;-inkscape-font-specification:'Roboto Bold';fill:#ffffff"
         id="path7234" />
      <path
         d="m 464.65751,213.22246 -12.26453,12.74685 v 33.89971 h -13.22916 v -100.3211 h 13.22916 v 49.60934 l 44.5795,-49.60934 h 15.98523 l -39.48077,44.30389 42.58135,56.01721 h -15.84743 z"
         style="font-family:Roboto;-inkscape-font-specification:Roboto;fill:#ffffff"
         id="path7236" />
      <path
         d="m 539.48493,259.86902 h -12.74685 v -74.55181 h 12.74685 z m -13.78037,-94.32664 q 0,-3.10058 1.86035,-5.23654 1.92925,-2.13595 5.64995,-2.13595 3.7207,0 5.64995,2.13595 1.92925,2.13596 1.92925,5.23654 0,3.10059 -1.92925,5.16764 -1.92925,2.06706 -5.64995,2.06706 -3.7207,0 -5.64995,-2.06706 -1.86035,-2.06705 -1.86035,-5.16764 z"
         style="font-family:Roboto;-inkscape-font-specification:Roboto;fill:#ffffff"
         id="path7238" />
      <path
         d="m 577.17422,167.26493 v 18.05228 h 13.91817 v 9.85297 h -13.91817 v 46.23314 q 0,4.47862 1.86035,6.75238 1.86035,2.20486 6.33897,2.20486 2.20486,0 6.06336,-0.82682 v 10.33528 q -5.02983,1.37804 -9.78406,1.37804 -8.54383,0 -12.88465,-5.16764 -4.34081,-5.16764 -4.34081,-14.6761 v -46.23314 h -13.57367 v -9.85297 h 13.57367 v -18.05228 z"
         style="font-family:Roboto;-inkscape-font-specification:Roboto;fill:#ffffff"
         id="path7240" />
    </g>
  </g>
</svg>
